<svg xmlns="http://www.w3.org/2000/svg" viewBox="0 0 2000.62 586.81"><defs><style>.cls-1{fill:#e2e8f0;stroke:#f1f5f9;stroke-miterlimit:10;}.cls-2,.cls-3{fill:none;stroke:#94a3b8;stroke-linejoin:round;stroke-width:8.88px;}.cls-2{stroke-linecap:round;}</style></defs><g id="Object"><circle class="cls-1" cx="-49.48" cy="442.6" r="166.26" transform="translate(179.95 72.09) rotate(-45)"/><line class="cls-2" x1="361.93" y1="158.11" x2="710.56" y2="158.11"/><path class="cls-2" d="M76.76,349.52H233.15A69.5,69.5,0,0,0,299.7,300L346.19,145.5a24.56,24.56,0,0,0-23.52-31.63H-165.79l44,146.25" transform="translate(507.41 -22.56)"/><line class="cls-3" x1="593.72" y1="438.6" x2="2000.62" y2="438.6"/><path class="cls-3" d="M-507.41,27h290.84a33.16,33.16,0,0,1,31.76,23.6l63,209.52" transform="translate(507.41 -22.56)"/><path class="cls-2" d="M9.12,563.4A165.48,165.48,0,0,1-74,585.64,166.26,166.26,0,0,1-240.27,419.38,166.27,166.27,0,0,1-74,253.11,166.27,166.27,0,0,1,92.26,419.38,165.5,165.5,0,0,1,70,502.54" transform="translate(507.41 -22.56)"/><path class="cls-2" d="M-104.33,474.32a36.7,36.7,0,0,0,27.17,12,36.83,36.83,0,0,0,36.83-36.83A36.27,36.27,0,0,0-51.7,423.34c-9.2-8.75-22.63-10-34-14.82-12.28-5.15-22-15-22-29a33.13,33.13,0,0,1,33.13-33.13,33.06,33.06,0,0,1,23.43,9.7" transform="translate(507.41 -22.56)"/><line class="cls-2" x1="432.86" y1="323.81" x2="432.86" y2="301.44"/><line class="cls-2" x1="432.86" y1="492.2" x2="432.86" y2="464.85"/><circle class="cls-2" cx="195.1" cy="546.82" r="38.82" transform="translate(177.89 275.56) rotate(-45)"/></g></svg>